<svg width="25" height="25" viewBox="0 0 25 25" fill="none" xmlns="http://www.w3.org/2000/svg">
<path fill-rule="evenodd" clip-rule="evenodd" d="M3.74585 9.40541C3.74585 6.42009 6.26677 4 9.37649 4C12.4862 4 15.0071 6.42009 15.0071 9.40541C15.0071 12.3908 12.4862 14.8108 9.37649 14.8108C6.26677 14.8108 3.74585 12.3908 3.74585 9.40541Z" fill="#01041B"/>
<path d="M15.4671 12.5344C15.4101 12.6379 15.4343 12.767 15.5323 12.8367C16.26 13.3538 17.1605 13.6596 18.1354 13.6596C20.554 13.6596 22.5148 11.7774 22.5148 9.45543C22.5148 7.13351 20.554 5.25122 18.1354 5.25122C17.1605 5.25122 16.26 5.55705 15.5323 6.0742C15.4343 6.14387 15.4101 6.27294 15.4671 6.3765C15.9725 7.2959 16.2585 8.3436 16.2585 9.45543C16.2585 10.5673 15.9725 11.615 15.4671 12.5344Z" fill="#01041B"/>
<path fill-rule="evenodd" clip-rule="evenodd" d="M3.29681 17.3526C4.8388 16.7101 6.862 16.5126 9.3764 16.5126C11.893 16.5126 13.9176 16.7104 15.4602 17.3544C17.1405 18.0558 18.1618 19.2505 18.697 20.9373C18.9479 21.728 18.3293 22.5186 17.4768 22.5186H1.27836C0.424854 22.5186 -0.195067 21.7268 0.0565854 20.9347C0.592585 19.2476 1.61541 18.0532 3.29681 17.3526Z" fill="#01041B"/>
<path d="M16.0316 15.305C15.5135 15.3358 15.4831 16.0038 15.9591 16.2025C17.2634 16.7469 18.2455 17.5483 18.9499 18.5712C19.5278 19.4105 20.4253 20.0652 21.4735 20.0652H23.7015C24.5864 20.0652 25.232 19.2213 24.9207 18.3968C24.9028 18.3493 24.8842 18.3023 24.8649 18.2556C24.4365 17.2172 23.7021 16.4528 22.6148 15.9655C21.5939 15.5081 20.3158 15.3193 18.8102 15.2622L18.7854 15.2613H18.7608C17.8739 15.2613 16.9476 15.2503 16.0316 15.305Z" fill="#01041B"/>
</svg>
