<svg width="12" height="11" viewBox="0 0 12 11" fill="none" xmlns="http://www.w3.org/2000/svg">
<path d="M1 1.125C1 0.95924 1.06585 0.800269 1.18306 0.683058C1.30027 0.565848 1.45924 0.5 1.625 0.5H4.125C4.29076 0.5 4.44973 0.565848 4.56694 0.683058C4.68415 0.800269 4.75 0.95924 4.75 1.125V4.25C4.75 4.41576 4.68415 4.57473 4.56694 4.69194C4.44973 4.80915 4.29076 4.875 4.125 4.875H1.625C1.45924 4.875 1.30027 4.80915 1.18306 4.69194C1.06585 4.57473 1 4.41576 1 4.25V1.125ZM7.25 1.125C7.25 0.95924 7.31585 0.800269 7.43306 0.683058C7.55027 0.565848 7.70924 0.5 7.875 0.5H10.375C10.5408 0.5 10.6997 0.565848 10.8169 0.683058C10.9342 0.800269 11 0.95924 11 1.125V2.375C11 2.54076 10.9342 2.69973 10.8169 2.81694C10.6997 2.93415 10.5408 3 10.375 3H7.875C7.70924 3 7.55027 2.93415 7.43306 2.81694C7.31585 2.69973 7.25 2.54076 7.25 2.375V1.125ZM1 8C1 7.83424 1.06585 7.67527 1.18306 7.55806C1.30027 7.44085 1.45924 7.375 1.625 7.375H4.125C4.29076 7.375 4.44973 7.44085 4.56694 7.55806C4.68415 7.67527 4.75 7.83424 4.75 8V9.875C4.75 10.0408 4.68415 10.1997 4.56694 10.3169C4.44973 10.4342 4.29076 10.5 4.125 10.5H1.625C1.45924 10.5 1.30027 10.4342 1.18306 10.3169C1.06585 10.1997 1 10.0408 1 9.875V8ZM7.25 6.125C7.25 5.95924 7.31585 5.80027 7.43306 5.68306C7.55027 5.56585 7.70924 5.5 7.875 5.5H10.375C10.5408 5.5 10.6997 5.56585 10.8169 5.68306C10.9342 5.80027 11 5.95924 11 6.125V9.875C11 10.0408 10.9342 10.1997 10.8169 10.3169C10.6997 10.4342 10.5408 10.5 10.375 10.5H7.875C7.70924 10.5 7.55027 10.4342 7.43306 10.3169C7.31585 10.1997 7.25 10.0408 7.25 9.875V6.125Z" stroke="#01041B"/>
</svg>
