<svg width="25" height="25" viewBox="0 0 25 25" fill="none" xmlns="http://www.w3.org/2000/svg">
<g clip-path="url(#clip0_555_337)">
<path d="M8.74993 0H2.49998C1.11928 0 0 1.11929 0 2.5V11.25C0 12.6307 1.11928 13.75 2.49998 13.75H8.74993C10.1306 13.75 11.2499 12.6307 11.2499 11.25V2.5C11.2499 1.11929 10.1306 0 8.74993 0Z" fill="#01041B"/>
<path d="M22.4999 0H16.25C14.8693 0 13.75 1.11929 13.75 2.5V6.24999C13.75 7.6307 14.8693 8.74999 16.25 8.74999H22.4999C23.8806 8.74999 24.9999 7.6307 24.9999 6.24999V2.5C24.9999 1.11929 23.8806 0 22.4999 0Z" fill="#01041B"/>
<path d="M8.74993 16.25H2.49998C1.11928 16.25 0 17.3693 0 18.75V22.5C0 23.8807 1.11928 25 2.49998 25H8.74993C10.1306 25 11.2499 23.8807 11.2499 22.5V18.75C11.2499 17.3693 10.1306 16.25 8.74993 16.25Z" fill="#01041B"/>
<path d="M22.4999 11.25H16.25C14.8693 11.25 13.75 12.3693 13.75 13.75V22.5C13.75 23.8807 14.8693 25 16.25 25H22.4999C23.8806 25 24.9999 23.8807 24.9999 22.5V13.75C24.9999 12.3693 23.8806 11.25 22.4999 11.25Z" fill="#01041B"/>
</g>
<defs>
<clipPath id="clip0_555_337">
<rect width="25" height="25" fill="white"/>
</clipPath>
</defs>
</svg>
