<svg width="15" height="15" viewBox="0 0 15 15" fill="none" xmlns="http://www.w3.org/2000/svg">
<path fill-rule="evenodd" clip-rule="evenodd" d="M3.26087 1.30432V0.978243C3.26087 0.437972 3.69884 0 4.23911 0C4.77937 0 5.21734 0.437972 5.21734 0.978243V1.30432H6.17876C6.18913 1.30416 6.19956 1.30415 6.20999 1.30432H7.4999C8.04015 1.30432 8.47814 1.7423 8.47814 2.28257C8.47814 2.82284 8.04015 3.26081 7.4999 3.26081H7.01156C6.67681 4.7759 6.03337 6.18421 5.08735 7.48264C5.72566 8.1515 6.47947 8.74666 7.35114 9.2697C7.81443 9.54765 7.96463 10.1486 7.68668 10.6118C7.40873 11.0751 6.80783 11.2253 6.34453 10.9473C5.38678 10.3727 4.54287 9.71656 3.81469 8.9802C3.15213 9.65649 2.39585 10.2982 1.5469 10.9045C1.10727 11.2186 0.49631 11.1167 0.182289 10.6771C-0.131734 10.2374 -0.0299076 9.62649 0.409723 9.31248C1.22975 8.72677 1.94528 8.11152 2.55772 7.46601C2.08506 6.7815 1.6903 6.0441 1.37447 5.25453C1.17382 4.7529 1.41781 4.18359 1.91944 3.98294C2.42106 3.78228 2.99037 4.02628 3.19102 4.5279C3.37507 4.98805 3.59124 5.42657 3.83987 5.84371C4.36604 5.02588 4.75098 4.1653 4.99702 3.26081H0.978314C0.438046 3.26081 7.6134e-05 2.82284 7.6134e-05 2.28257C7.6134e-05 1.7423 0.438046 1.30432 0.978314 1.30432H3.26087ZM10.4289 10.4346H11.7447L11.0868 8.53393L10.4289 10.4346ZM9.75161 12.3911L9.07649 14.3415C8.89976 14.852 8.34262 15.1227 7.83204 14.9459C7.32153 14.7692 7.05089 14.212 7.22762 13.7015L10.1623 5.22338C10.4662 4.34572 11.7074 4.34572 12.0112 5.22338L14.9459 13.7015C15.1227 14.212 14.852 14.7692 14.3415 14.9459C13.8309 15.1227 13.2738 14.852 13.097 14.3415L12.4219 12.3911H9.75161Z" fill="url(#paint0_linear_897_667)"/>
<defs>
<linearGradient id="paint0_linear_897_667" x1="-10.9034" y1="-5.75262e-07" x2="28.2224" y2="9.8004" gradientUnits="userSpaceOnUse">
<stop offset="0.0187499" stop-color="#1570FE"/>
<stop offset="0.45625" stop-color="#76ACFF"/>
<stop offset="0.701042" stop-color="#8458E8"/>
<stop offset="0.934582" stop-color="#876CD2"/>
</linearGradient>
</defs>
</svg>
