<svg width="15" height="16" viewBox="0 0 15 16" fill="none" xmlns="http://www.w3.org/2000/svg">
<path d="M7.50084 11.7513C9.5721 11.7513 11.2512 10.0722 11.2512 8.0009C11.2512 5.9296 9.5721 4.25049 7.50084 4.25049C5.42958 4.25049 3.75049 5.9296 3.75049 8.0009C3.75049 10.0722 5.42958 11.7513 7.50084 11.7513Z" fill="url(#paint0_linear_897_647)"/>
<path fill-rule="evenodd" clip-rule="evenodd" d="M2.81282 7.99907C2.81282 7.48084 2.39351 7.06152 1.87529 7.06152H0.937529C0.41931 7.06152 0 7.48084 0 7.99907C0 8.51729 0.41931 8.93661 0.937529 8.93661H1.87506C2.39351 8.93661 2.81282 8.51729 2.81282 7.99907Z" fill="url(#paint1_linear_897_647)"/>
<path fill-rule="evenodd" clip-rule="evenodd" d="M2.8604 11.3138L2.19663 11.9778C1.83029 12.3439 1.83029 12.9374 2.19663 13.3035C2.56273 13.6696 3.15619 13.6696 3.52253 13.3035L4.18654 12.6397C4.55264 12.2736 4.55264 11.6799 4.18654 11.3138C3.81996 10.9475 3.22674 10.9475 2.8604 11.3138Z" fill="url(#paint2_linear_897_647)"/>
<path fill-rule="evenodd" clip-rule="evenodd" d="M7.50101 12.687C6.98279 12.687 6.56348 13.1063 6.56348 13.6246V14.5623C6.56348 15.0806 6.98279 15.4999 7.50101 15.4999C8.01922 15.4999 8.43853 15.0806 8.43853 14.5623L8.4376 13.6246C8.43854 13.1063 8.01829 12.687 7.50101 12.687Z" fill="url(#paint3_linear_897_647)"/>
<path fill-rule="evenodd" clip-rule="evenodd" d="M12.1406 11.3145C11.7752 10.9474 11.1817 10.9474 10.8156 11.3135C10.4495 11.6796 10.4495 12.2733 10.8156 12.6394L11.4787 13.3023C11.8448 13.6703 12.4382 13.6684 12.8043 13.3023C13.1704 12.9362 13.1714 12.3437 12.8043 11.9766L12.1406 11.3145Z" fill="url(#paint4_linear_897_647)"/>
<path fill-rule="evenodd" clip-rule="evenodd" d="M14.0643 7.06152L13.1246 7.0634C12.6083 7.06152 12.189 7.48084 12.189 7.99907C12.1871 8.51729 12.6083 8.93661 13.1246 8.93661H14.0624C14.5825 8.93849 14.9999 8.51729 14.9999 7.99907C15.0009 7.48178 14.5825 7.06152 14.0643 7.06152Z" fill="url(#paint5_linear_897_647)"/>
<path fill-rule="evenodd" clip-rule="evenodd" d="M12.1406 4.68499L12.8034 4.02191C13.1723 3.65486 13.1695 3.06233 12.8034 2.69599C12.438 2.32871 11.8448 2.32871 11.4787 2.69505L10.8156 3.35977C10.4495 3.72424 10.4495 4.31747 10.8156 4.68382C11.1798 5.05227 11.7752 5.0504 12.1406 4.68499Z" fill="url(#paint6_linear_897_647)"/>
<path fill-rule="evenodd" clip-rule="evenodd" d="M7.50094 3.31076C8.01823 3.31451 8.43847 2.89145 8.43847 2.37509V1.43755C8.43847 0.917448 8.01916 0.500006 7.50094 0.500006C6.98273 0.498131 6.56342 0.917448 6.56342 1.43591L6.56529 2.37533C6.56342 2.89145 6.98273 3.31076 7.50094 3.31076Z" fill="url(#paint7_linear_897_647)"/>
<path fill-rule="evenodd" clip-rule="evenodd" d="M2.86237 4.68432C3.22684 5.05044 3.81842 5.05044 4.1857 4.68339C4.55461 4.31985 4.55274 3.72475 4.18757 3.35934L3.5245 2.6965C3.15652 2.32828 2.56494 2.33109 2.1986 2.6965C1.82945 3.06191 1.82945 3.65514 2.19579 4.02148L2.86237 4.68432Z" fill="url(#paint8_linear_897_647)"/>
<defs>
<linearGradient id="paint0_linear_897_647" x1="-1.7017" y1="4.25049" x2="17.863" y2="9.15108" gradientUnits="userSpaceOnUse">
<stop offset="0.0187499" stop-color="#1570FE"/>
<stop offset="0.45625" stop-color="#76ACFF"/>
<stop offset="0.701042" stop-color="#8458E8"/>
<stop offset="0.934582" stop-color="#876CD2"/>
</linearGradient>
<linearGradient id="paint1_linear_897_647" x1="-2.04461" y1="7.06152" x2="4.78795" y2="9.62888" gradientUnits="userSpaceOnUse">
<stop offset="0.0187499" stop-color="#1570FE"/>
<stop offset="0.45625" stop-color="#76ACFF"/>
<stop offset="0.701042" stop-color="#8458E8"/>
<stop offset="0.934582" stop-color="#876CD2"/>
</linearGradient>
<linearGradient id="paint2_linear_897_647" x1="0.0761257" y1="11.0391" x2="6.69937" y2="12.6982" gradientUnits="userSpaceOnUse">
<stop offset="0.0187499" stop-color="#1570FE"/>
<stop offset="0.45625" stop-color="#76ACFF"/>
<stop offset="0.701042" stop-color="#8458E8"/>
<stop offset="0.934582" stop-color="#876CD2"/>
</linearGradient>
<linearGradient id="paint3_linear_897_647" x1="5.20051" y1="12.687" x2="10.2573" y2="13.5314" gradientUnits="userSpaceOnUse">
<stop offset="0.0187499" stop-color="#1570FE"/>
<stop offset="0.45625" stop-color="#76ACFF"/>
<stop offset="0.701042" stop-color="#8458E8"/>
<stop offset="0.934582" stop-color="#876CD2"/>
</linearGradient>
<linearGradient id="paint4_linear_897_647" x1="8.69599" y1="11.0391" x2="15.3168" y2="12.6973" gradientUnits="userSpaceOnUse">
<stop offset="0.0187499" stop-color="#1570FE"/>
<stop offset="0.45625" stop-color="#76ACFF"/>
<stop offset="0.701042" stop-color="#8458E8"/>
<stop offset="0.934582" stop-color="#876CD2"/>
</linearGradient>
<linearGradient id="paint5_linear_897_647" x1="10.1457" y1="7.06152" x2="16.9749" y2="9.62588" gradientUnits="userSpaceOnUse">
<stop offset="0.0187499" stop-color="#1570FE"/>
<stop offset="0.45625" stop-color="#76ACFF"/>
<stop offset="0.701042" stop-color="#8458E8"/>
<stop offset="0.934582" stop-color="#876CD2"/>
</linearGradient>
<linearGradient id="paint6_linear_897_647" x1="8.69616" y1="2.42041" x2="15.3166" y2="4.07796" gradientUnits="userSpaceOnUse">
<stop offset="0.0187499" stop-color="#1570FE"/>
<stop offset="0.45625" stop-color="#76ACFF"/>
<stop offset="0.701042" stop-color="#8458E8"/>
<stop offset="0.934582" stop-color="#876CD2"/>
</linearGradient>
<linearGradient id="paint7_linear_897_647" x1="5.20045" y1="0.5" x2="10.257" y2="1.34493" gradientUnits="userSpaceOnUse">
<stop offset="0.0187499" stop-color="#1570FE"/>
<stop offset="0.45625" stop-color="#76ACFF"/>
<stop offset="0.701042" stop-color="#8458E8"/>
<stop offset="0.934582" stop-color="#876CD2"/>
</linearGradient>
<linearGradient id="paint8_linear_897_647" x1="0.0746998" y1="2.42139" x2="6.70041" y2="4.08307" gradientUnits="userSpaceOnUse">
<stop offset="0.0187499" stop-color="#1570FE"/>
<stop offset="0.45625" stop-color="#76ACFF"/>
<stop offset="0.701042" stop-color="#8458E8"/>
<stop offset="0.934582" stop-color="#876CD2"/>
</linearGradient>
</defs>
</svg>
