<svg width="25" height="25" viewBox="0 0 25 25" fill="none" xmlns="http://www.w3.org/2000/svg">
<path fill-rule="evenodd" clip-rule="evenodd" d="M5 11.25C5 9.5924 5.65848 8.00269 6.83058 6.83058C8.00269 5.65848 9.5924 5 11.25 5C12.9076 5 14.4973 5.65848 15.6694 6.83058C16.8415 8.00269 17.5 9.5924 17.5 11.25C17.5 12.9076 16.8415 14.4973 15.6694 15.6694C14.4973 16.8415 12.9076 17.5 11.25 17.5C9.5924 17.5 8.00269 16.8415 6.83058 15.6694C5.65848 14.4973 5 12.9076 5 11.25ZM11.25 2.5C9.86355 2.5 8.49694 2.82947 7.2628 3.46125C6.02865 4.09303 4.96231 5.00904 4.15163 6.13379C3.34096 7.25854 2.80916 8.55983 2.60008 9.93043C2.39099 11.301 2.51059 12.7017 2.94902 14.017C3.38746 15.3323 4.13218 16.5246 5.12181 17.4956C6.11144 18.4666 7.31765 19.1886 8.64104 19.602C9.96442 20.0154 11.3671 20.1084 12.7335 19.8733C14.0999 19.6383 15.3908 19.0819 16.5 18.25C16.5355 18.2973 16.5744 18.342 16.6163 18.3838L20.3663 22.1338C20.602 22.3615 20.9178 22.4874 21.2455 22.4846C21.5732 22.4817 21.8868 22.3503 22.1185 22.1185C22.3503 21.8868 22.4817 21.5732 22.4846 21.2455C22.4874 20.9178 22.3615 20.602 22.1338 20.3663L18.3838 16.6163C18.342 16.5744 18.2973 16.5355 18.25 16.5C19.225 15.2 19.8187 13.6542 19.9646 12.0358C20.1106 10.4174 19.803 8.79031 19.0762 7.33688C18.3495 5.88346 17.2324 4.66111 15.8501 3.80681C14.4679 2.9525 12.875 2.5 11.25 2.5Z" fill="#01041B"/>
</svg>
