<svg width="17" height="17" viewBox="0 0 17 17" fill="none" xmlns="http://www.w3.org/2000/svg">
<path fill-rule="evenodd" clip-rule="evenodd" d="M0.915797 15.0831C0.639177 15.3597 0.639177 15.8082 0.915797 16.0848C1.19242 16.3615 1.64091 16.3615 1.91754 16.0848L16.0842 1.91819C16.3608 1.64156 16.3608 1.19307 16.0842 0.916449C15.8076 0.63983 15.3591 0.63983 15.0825 0.916449L12.2647 3.7342C11.0662 3.1359 9.80985 2.83398 8.49766 2.83398C5.45235 2.83398 2.70777 4.46018 0.288747 7.6435C-0.0962397 8.15003 -0.0962511 8.85113 0.288726 9.35781C1.29625 10.6837 2.36024 11.7394 3.47892 12.52L0.915797 15.0831ZM5.54327 10.4557L6.58003 9.41886C6.44665 9.14098 6.37194 8.82953 6.37194 8.50065C6.37194 7.32701 7.32332 6.37565 8.49695 6.37565C8.82498 6.37565 9.13573 6.44999 9.41311 6.58275C9.39987 6.59596 9.38719 6.60968 9.375 6.6239L10.452 5.54699C9.89166 5.17542 9.2196 4.95898 8.49695 4.95898C6.54093 4.95898 4.95527 6.54464 4.95527 8.50065C4.95527 9.22329 5.1717 9.89536 5.54327 10.4557Z" fill="#8394B1"/>
<path d="M7.85072 11.983L6.03906 13.7947C6.83529 14.0424 7.65508 14.1669 8.49785 14.1669C11.5433 14.1669 14.2878 12.5407 16.7069 9.35738C17.0918 8.85085 17.0918 8.14967 16.7069 7.64307C16.0128 6.72966 15.2918 5.94445 14.5447 5.28906L11.9799 7.8538C12.0186 8.06339 12.0388 8.27943 12.0388 8.50022C12.0388 10.4562 10.4531 12.0419 8.49714 12.0419C8.27635 12.0419 8.06031 12.0217 7.85072 11.983Z" fill="#8394B1"/>
</svg>
