<svg width="17" height="12" viewBox="0 0 17 12" fill="none" xmlns="http://www.w3.org/2000/svg">
<path fill-rule="evenodd" clip-rule="evenodd" d="M9.41311 3.74876C9.28469 3.87698 9.20529 4.05421 9.20529 4.25C9.20529 4.64121 9.52241 4.95833 9.91362 4.95833C10.1094 4.95833 10.2866 4.87893 10.4148 4.75051C10.5476 5.02789 10.622 5.33864 10.622 5.66667C10.622 6.8403 9.67052 7.79167 8.49695 7.79167C7.32332 7.79167 6.37194 6.8403 6.37194 5.66667C6.37194 4.49303 7.32332 3.54167 8.49695 3.54167C8.82498 3.54167 9.13573 3.61601 9.41311 3.74876ZM8.49766 11.3333C5.45235 11.3333 2.70776 9.70714 0.288726 6.52382C-0.0962511 6.01715 -0.0962397 5.31604 0.288747 4.80951C2.70777 1.6262 5.45235 0 8.49766 0C11.5431 0 14.2876 1.62621 16.7067 4.80951C17.0917 5.31618 17.0917 6.01729 16.7067 6.52382C14.2876 9.70714 11.5431 11.3333 8.49766 11.3333ZM8.49695 9.20833C10.4529 9.20833 12.0386 7.62266 12.0386 5.66667C12.0386 3.71066 10.4529 2.125 8.49695 2.125C6.54093 2.125 4.95527 3.71066 4.95527 5.66667C4.95527 7.62266 6.54093 9.20833 8.49695 9.20833Z" fill="#8394B1"/>
</svg>
